<svg width="21" height="15" viewBox="0 0 21 15" fill="none" xmlns="http://www.w3.org/2000/svg">
<path d="M19.0089 0.3125H1.86607C1.48719 0.3125 1.12383 0.46301 0.855919 0.730919C0.58801 0.998828 0.4375 1.36219 0.4375 1.74107V13.1696C0.4375 13.5485 0.58801 13.9119 0.855919 14.1798C1.12383 14.4477 1.48719 14.5982 1.86607 14.5982H19.0089C19.3878 14.5982 19.7512 14.4477 20.0191 14.1798C20.287 13.9119 20.4375 13.5485 20.4375 13.1696V1.74107C20.4375 1.36219 20.287 0.998828 20.0191 0.730919C19.7512 0.46301 19.3878 0.3125 19.0089 0.3125ZM17.4375 1.74107L10.4375 6.58393L3.4375 1.74107H17.4375ZM1.86607 13.1696V2.39107L10.0304 8.04107C10.1499 8.12402 10.292 8.16847 10.4375 8.16847C10.583 8.16847 10.7251 8.12402 10.8446 8.04107L19.0089 2.39107V13.1696H1.86607Z" fill="#9282FA" fill-opacity="0.4"/>
</svg>
