<svg width="16" height="20" viewBox="0 0 16 20" fill="none" xmlns="http://www.w3.org/2000/svg">
<path d="M14.4 8.57143H12.8V4.28571C12.8 3.14907 12.2943 2.05898 11.3941 1.25526C10.4939 0.451529 9.27304 0 8 0C6.72696 0 5.50606 0.451529 4.60589 1.25526C3.70571 2.05898 3.2 3.14907 3.2 4.28571V8.57143H1.6C1.17565 8.57143 0.768687 8.72194 0.468629 8.98985C0.168571 9.25776 0 9.62112 0 10V18.5714C0 18.9503 0.168571 19.3137 0.468629 19.5816C0.768687 19.8495 1.17565 20 1.6 20H14.4C14.8243 20 15.2313 19.8495 15.5314 19.5816C15.8314 19.3137 16 18.9503 16 18.5714V10C16 9.62112 15.8314 9.25776 15.5314 8.98985C15.2313 8.72194 14.8243 8.57143 14.4 8.57143ZM4.8 4.28571C4.8 3.52795 5.13714 2.80123 5.73726 2.26541C6.33737 1.72959 7.15131 1.42857 8 1.42857C8.84869 1.42857 9.66263 1.72959 10.2627 2.26541C10.8629 2.80123 11.2 3.52795 11.2 4.28571V8.57143H4.8V4.28571ZM14.4 18.5714H1.6V10H14.4V18.5714Z" fill="#9282FA" fill-opacity="0.4"/>
</svg>
